# xmcd
#
# Track frame offsets:
#	150
#	17398
#	43106
#	69408
#	99519
#	134615
#	152923
#	169628
#	183595
#	196366
#	211218
#	225870
#	237999
#	249695
#	262790
#	288836
#
# Disc length: 4152 seconds
#
# Revision: 0
# Processed by: cddbd v1.5.1PL2 Copyright (c) Steve Scherf et al.
# Submitted via: audiograbber 1.81.02
#
DISCID=d4103610
DTITLE=Τζόρνταν - Αυθεντικοί ΈΛληνες Δεξιοτέχνες(2)
DYEAR=1954
DGENRE=Folk
TTITLE0=Τζόρνταν - Μες το κρασί μου
TTITLE1=Τζόρνταν - Ο Ιορδάνης ποταμός
TTITLE2=Τζόρνταν - Ποιος μπορεί
TTITLE3=Τζόρνταν - Τσιφτετέλι με ταξίμι
TTITLE4=Τζόρνταν - Για το κέφι του Ζορμπά
TTITLE5=Τζόρνταν - Σαν εμάνε παλικάρι
TTITLE6=Τζόρνταν - Μπουζούκι σόλο
TTITLE7=Τζόρνταν - Ποτέ μην ξημερώσει
TTITLE8=Τζόρνταν - Βαρέθηκα τέτοια ζωή
TTITLE9=Τζόρνταν - Βάστα πονεμένο μου κορμί
TTITLE10=Τζόρνταν - Λόγω τιμής
TTITLE11=Τζόρνταν - Με αγαπάς
TTITLE12=Τζόρνταν - You and me
TTITLE13=Τζόρνταν - Ιτιά
TTITLE14=Τζόρνταν - A taste of honey
TTITLE15=Τζόρνταν - Greek cooking
EXTD=
EXTT0=
EXTT1=
EXTT2=
EXTT3=
EXTT4=
EXTT5=
EXTT6=
EXTT7=
EXTT8=
EXTT9=
EXTT10=
EXTT11=
EXTT12=
EXTT13=
EXTT14=
EXTT15=
PLAYORDER=
